<svg xmlns="http://www.w3.org/2000/svg" width="25" height="25" id="camera"><g transform="translate(0 -1027.362)"><circle cx="657.054" cy="437.094" r="15.268" fill="#A6ACAF 
" fill-rule="evenodd" transform="translate(-525.439 682.007) scale(.81871)"></circle><path fill="#000" d="M5.686 2 4.68 4.002H1.004v9h13.992v-9h-3.67L10.3 2H5.686Zm.617 1h3.385l1.027 2.002h3.281v7H2.004v-7h3.293L6.303 3ZM8.02 6.014a2.508 2.508 0 0 0-2.5 2.5c0 1.374 1.126 2.5 2.5 2.5 1.375 0 2.5-1.126 2.5-2.5 0-1.375-1.125-2.5-2.5-2.5zm0 1c.835 0 1.5.665 1.5 1.5 0 .834-.665 1.5-1.5 1.5-.834 0-1.5-.666-1.5-1.5 0-.835.666-1.5 1.5-1.5z" color="#000" font-family="sans-serif" font-weight="400" overflow="visible" transform="translate(5 1032.361)" style="line-height:normal;text-indent:0;text-align:start;text-decoration-line:none;text-decoration-style:solid;text-decoration-color:#000;text-transform:none;block-progression:tb;isolation:auto;mix-blend-mode:normal"></path></g></svg>