<svg width="22" height="21" viewBox="0 0 22 21" fill="none" xmlns="http://www.w3.org/2000/svg">
<path d="M16.8767 14.617L21.1597 18.899L19.7447 20.314L15.4627 16.031C13.8694 17.3082 11.8877 18.0029 9.8457 18C4.8777 18 0.845703 13.968 0.845703 9C0.845703 4.032 4.8777 0 9.8457 0C14.8137 0 18.8457 4.032 18.8457 9C18.8486 11.042 18.1539 13.0237 16.8767 14.617ZM14.8707 13.875C16.1398 12.5699 16.8486 10.8204 16.8457 9C16.8457 5.132 13.7127 2 9.8457 2C5.9777 2 2.8457 5.132 2.8457 9C2.8457 12.867 5.9777 16 9.8457 16C11.6661 16.0029 13.4156 15.2941 14.7207 14.025L14.8707 13.875Z" fill="black"/>
</svg>
