<svg width="27" height="26" viewBox="0 0 27 26" fill="none" xmlns="http://www.w3.org/2000/svg">
<path d="M13.4993 2.16699C7.53018 2.16699 2.66602 7.03116 2.66602 13.0003C2.66602 18.9695 7.53018 23.8337 13.4993 23.8337C19.4685 23.8337 24.3327 18.9695 24.3327 13.0003C24.3327 7.03116 19.4685 2.16699 13.4993 2.16699ZM17.8327 13.8128H14.3118V17.3337C14.3118 17.7778 13.9435 18.1462 13.4993 18.1462C13.0552 18.1462 12.6868 17.7778 12.6868 17.3337V13.8128H9.16602C8.72185 13.8128 8.35352 13.4445 8.35352 13.0003C8.35352 12.5562 8.72185 12.1878 9.16602 12.1878H12.6868V8.66699C12.6868 8.22283 13.0552 7.85449 13.4993 7.85449C13.9435 7.85449 14.3118 8.22283 14.3118 8.66699V12.1878H17.8327C18.2768 12.1878 18.6452 12.5562 18.6452 13.0003C18.6452 13.4445 18.2768 13.8128 17.8327 13.8128Z" fill="#582C7D"/>
</svg>
