<svg width="48" height="48" viewBox="0 0 48 48" fill="none" xmlns="http://www.w3.org/2000/svg">
<rect width="48" height="48" rx="12" fill="#FFF5F5"/>
<path d="M20 24.2H27M20 28.2H24.38M22 18H26C28 18 28 17 28 16C28 14 27 14 26 14H22C21 14 20 14 20 16C20 18 21 18 22 18Z" stroke="#EA5B5B" stroke-width="1.5" stroke-miterlimit="10" stroke-linecap="round" stroke-linejoin="round"/>
<path d="M28 16.0195C31.33 16.1995 33 17.4295 33 21.9995V27.9995C33 31.9995 32 33.9995 27 33.9995H21C16 33.9995 15 31.9995 15 27.9995V21.9995C15 17.4395 16.67 16.1995 20 16.0195" stroke="#EA5B5B" stroke-width="1.5" stroke-miterlimit="10" stroke-linecap="round" stroke-linejoin="round"/>
</svg>
